<svg width="20" height="19" viewBox="0 0 20 19" fill="none" xmlns="http://www.w3.org/2000/svg">
<path d="M12.6884 15.784C13.4703 16.011 14.2805 16.1258 15.0947 16.125C16.404 16.1269 17.6964 15.8284 18.8722 15.2523C18.907 14.4307 18.673 13.6202 18.2056 12.9436C17.7383 12.2669 17.0631 11.7611 16.2824 11.5027C15.5017 11.2443 14.658 11.2475 13.8793 11.5118C13.1006 11.776 12.4292 12.2869 11.967 12.9671M12.6884 15.784V15.7813C12.6884 14.761 12.4262 13.8013 11.967 12.9671M12.6884 15.784V15.8812C10.9243 16.9437 8.90314 17.5035 6.84375 17.5C4.707 17.5 2.70775 16.9088 1.00092 15.8812L1 15.7813C0.999297 14.4837 1.43048 13.2228 2.22557 12.1973C3.02066 11.1719 4.13443 10.4402 5.39128 10.1177C6.64814 9.79521 7.97659 9.90018 9.16719 10.4161C10.3578 10.932 11.3428 11.8295 11.967 12.9671M9.93842 4.09375C9.93842 4.91426 9.61247 5.70117 9.03228 6.28136C8.45209 6.86155 7.66518 7.1875 6.84467 7.1875C6.02415 7.1875 5.23725 6.86155 4.65706 6.28136C4.07686 5.70117 3.75092 4.91426 3.75092 4.09375C3.75092 3.27324 4.07686 2.48633 4.65706 1.90614C5.23725 1.32595 6.02415 1 6.84467 1C7.66518 1 8.45209 1.32595 9.03228 1.90614C9.61247 2.48633 9.93842 3.27324 9.93842 4.09375ZM17.5009 6.15625C17.5009 6.79443 17.2474 7.40647 16.7961 7.85773C16.3449 8.30899 15.7328 8.5625 15.0947 8.5625C14.4565 8.5625 13.8444 8.30899 13.3932 7.85773C12.9419 7.40647 12.6884 6.79443 12.6884 6.15625C12.6884 5.51807 12.9419 4.90603 13.3932 4.45478C13.8444 4.00352 14.4565 3.75 15.0947 3.75C15.7328 3.75 16.3449 4.00352 16.7961 4.45478C17.2474 4.90603 17.5009 5.51807 17.5009 6.15625Z" stroke="white" stroke-width="1.25" stroke-linecap="round" stroke-linejoin="round"/>
</svg>
