<svg width="50" height="51" viewBox="0 0 50 51" fill="none" xmlns="http://www.w3.org/2000/svg">
<path d="M29.6875 13.1812C29.6875 12.4417 30.075 11.7729 30.5229 11.1833C30.9833 10.5792 31.25 9.8625 31.25 9.09375C31.25 6.93542 29.1521 5.1875 26.5625 5.1875C23.9729 5.1875 21.875 6.9375 21.875 9.09375C21.875 9.8625 22.1417 10.5792 22.6021 11.1833C23.05 11.7729 23.4375 12.4417 23.4375 13.1812C23.4384 13.3599 23.4034 13.5369 23.3346 13.7017C23.2657 13.8666 23.1645 14.0159 23.0368 14.1409C22.9091 14.2658 22.7576 14.3639 22.5913 14.4291C22.425 14.4944 22.2473 14.5256 22.0688 14.5208C19.1701 14.4373 16.2765 14.2288 13.3958 13.8958C13.7833 17.2562 14.0062 20.6667 14.0521 24.1187C14.054 24.2998 14.02 24.4794 13.9519 24.6472C13.8838 24.815 13.7831 24.9675 13.6555 25.0961C13.528 25.2246 13.3762 25.3265 13.2089 25.3958C13.0417 25.4651 12.8623 25.5006 12.6812 25.5C11.9417 25.5 11.2729 25.1125 10.6833 24.6646C10.0862 24.1981 9.35145 23.9425 8.59375 23.9375C6.43542 23.9375 4.6875 26.0354 4.6875 28.625C4.6875 31.2146 6.4375 33.3125 8.59375 33.3125C9.3625 33.3125 10.0792 33.0458 10.6833 32.5854C11.2729 32.1375 11.9417 31.75 12.6812 31.75C13.3271 31.75 13.8375 32.2917 13.7896 32.9375C13.5304 36.4698 13.084 39.9859 12.4521 43.4708C15.6146 43.8667 18.8229 44.1146 22.0688 44.2083C22.2473 44.2131 22.425 44.1819 22.5913 44.1166C22.7576 44.0514 22.9091 43.9533 23.0368 43.8284C23.1645 43.7034 23.2657 43.5541 23.3346 43.3892C23.4034 43.2244 23.4384 43.0474 23.4375 42.8687C23.4375 42.1292 23.05 41.4604 22.6021 40.8708C22.1356 40.2737 21.88 39.539 21.875 38.7812C21.875 36.625 23.975 34.875 26.5625 34.875C29.1521 34.875 31.25 36.625 31.25 38.7812C31.25 39.55 30.9833 40.2667 30.5229 40.8708C30.075 41.4604 29.6896 42.1292 29.6896 42.8687C29.6896 43.5625 30.2667 44.1167 30.9604 44.0771C34.751 43.8541 38.5258 43.4159 42.2667 42.7646C42.8327 39.5109 43.2374 36.2312 43.4792 32.9375C43.4901 32.7853 43.4694 32.6324 43.4185 32.4885C43.3676 32.3446 43.2875 32.2128 43.1832 32.1013C43.079 31.9898 42.9528 31.9011 42.8127 31.8406C42.6725 31.7802 42.5214 31.7493 42.3687 31.75C41.6292 31.75 40.9604 32.1375 40.3708 32.5854C39.7667 33.0458 39.05 33.3125 38.2812 33.3125C36.125 33.3125 34.375 31.2146 34.375 28.625C34.375 26.0354 36.125 23.9375 38.2812 23.9375C39.0521 23.9375 39.7667 24.2042 40.3708 24.6646C40.9604 25.1125 41.6292 25.5 42.3708 25.5C42.5519 25.5006 42.7313 25.4651 42.8985 25.3958C43.0658 25.3265 43.2176 25.2246 43.3451 25.0961C43.4727 24.9675 43.5734 24.815 43.6415 24.6472C43.7095 24.4794 43.7436 24.2998 43.7417 24.1187C43.6916 20.3851 43.4342 16.6572 42.9708 12.9521C39.0417 13.6646 35.0333 14.1479 30.9583 14.3875C30.7943 14.3966 30.6302 14.372 30.476 14.3153C30.3219 14.2587 30.1809 14.171 30.0619 14.0578C29.9429 13.9447 29.8482 13.8083 29.7839 13.6572C29.7195 13.5061 29.6867 13.3455 29.6875 13.1812Z" stroke="black" stroke-width="1.5" stroke-linecap="round" stroke-linejoin="round"/>
</svg>
