<svg width="50" height="51" viewBox="0 0 50 51" fill="none" xmlns="http://www.w3.org/2000/svg">
<path d="M32.8125 33.3125L27.6271 28.1271M27.6271 28.1271C28.28 27.4742 28.7979 26.699 29.1513 25.846C29.5046 24.9929 29.6865 24.0786 29.6865 23.1552C29.6865 22.2318 29.5046 21.3175 29.1513 20.4644C28.7979 19.6114 28.28 18.8362 27.6271 18.1833C26.9742 17.5304 26.199 17.0125 25.346 16.6591C24.4929 16.3058 23.5786 16.1239 22.6552 16.1239C21.7318 16.1239 20.8175 16.3058 19.9644 16.6591C19.1114 17.0125 18.3362 17.5304 17.6833 18.1833C16.3644 19.5022 15.6235 21.291 15.6235 23.1562C15.6235 25.0215 16.3644 26.8103 17.6833 28.1292C19.0022 29.4481 20.791 30.189 22.6562 30.189C24.5215 30.189 26.3103 29.4481 27.6292 28.1292L27.6271 28.1271ZM43.75 25.5C43.75 27.9623 43.265 30.4005 42.3227 32.6753C41.3805 34.9502 39.9993 37.0172 38.2582 38.7582C36.5172 40.4993 34.4502 41.8805 32.1753 42.8227C29.9005 43.765 27.4623 44.25 25 44.25C22.5377 44.25 20.0995 43.765 17.8247 42.8227C15.5498 41.8805 13.4828 40.4993 11.7417 38.7582C10.0006 37.0172 8.61953 34.9502 7.67726 32.6753C6.73498 30.4005 6.25 27.9623 6.25 25.5C6.25 20.5272 8.22544 15.7581 11.7417 12.2417C15.2581 8.72544 20.0272 6.75 25 6.75C29.9728 6.75 34.7419 8.72544 38.2582 12.2417C41.7746 15.7581 43.75 20.5272 43.75 25.5Z" stroke="black" stroke-width="1.5" stroke-linecap="round" stroke-linejoin="round"/>
</svg>
