<svg width="50" height="51" viewBox="0 0 50 51" fill="none" xmlns="http://www.w3.org/2000/svg">
<path d="M8.87504 21.6394C8.30201 26.026 7.96056 30.4397 7.85212 34.8623C13.8496 37.3675 19.5921 40.4442 25 44.0498C30.4087 40.4441 36.1518 37.3674 42.15 34.8623C42.0415 30.4397 41.7001 26.026 41.1271 21.6394M41.1271 21.6394C42.95 21.0269 44.798 20.4602 46.6646 19.9435C39.8658 15.1774 32.6083 11.1016 25 7.77686C17.3917 11.1023 10.1342 15.1788 3.33545 19.9456C5.19643 20.4594 7.04296 21.0242 8.87295 21.6394C14.4326 23.5085 19.8269 25.8374 25 28.6019C30.1724 25.8374 35.5682 23.5085 41.1271 21.6394ZM14.0625 31.7498C14.4769 31.7498 14.8744 31.5852 15.1674 31.2921C15.4604 30.9991 15.625 30.6017 15.625 30.1873C15.625 29.7729 15.4604 29.3754 15.1674 29.0824C14.8744 28.7894 14.4769 28.6248 14.0625 28.6248C13.6481 28.6248 13.2507 28.7894 12.9577 29.0824C12.6647 29.3754 12.5 29.7729 12.5 30.1873C12.5 30.6017 12.6647 30.9991 12.9577 31.2921C13.2507 31.5852 13.6481 31.7498 14.0625 31.7498ZM14.0625 31.7498V24.0935C17.5974 21.8963 21.2486 19.892 25 18.0894M10.4021 42.1519C11.5646 40.9923 12.4864 39.6144 13.1145 38.0974C13.7427 36.5804 14.0649 34.9542 14.0625 33.3123V30.1873" stroke="black" stroke-width="1.5" stroke-linecap="round" stroke-linejoin="round"/>
</svg>
